<svg xmlns="http://www.w3.org/2000/svg" viewBox="0 0 25 25" width="24" height="24"><path fill="#2b3344" d="M21.5 21H20V7.5a.49.49 0 00-.34-.5L16 5.47V21h-1V3.5a.5.5 0 00-.5-.5h-9a.5.5 0 00-.5.5V21H3.5a.5.5 0 000 1h18a.5.5 0 000-1zm-4-12h1a.5.5 0 01.5.5.51.51 0 01-.5.5h-1a.51.51 0 01-.5-.5.5.5 0 01.5-.5zm0 3h1a.5.5 0 010 1h-1a.5.5 0 010-1zm0 3h1a.51.51 0 01.5.5.5.5 0 01-.5.5h-1a.5.5 0 01-.5-.5.51.51 0 01.5-.5zm0 3h1a.5.5 0 010 1h-1a.5.5 0 010-1zM11 6h1a.5.5 0 110 1h-1a.5.5 0 010-1zm0 3h1a.5.5 0 110 1h-1a.5.5 0 010-1zm0 3h1a.5.5 0 110 1h-1a.5.5 0 010-1zm0 3h1a.5.5 0 110 1h-1a.5.5 0 010-1zM7.94 6H9a.5.5 0 010 1H8a.5.5 0 010-1zm0 3H9a.5.5 0 010 1H8a.5.5 0 010-1zm0 3H9a.5.5 0 010 1H8a.5.5 0 010-1zm0 3H9a.5.5 0 010 1H8a.5.5 0 010-1zm2.56 6v-2h-1v2h-1v-2.53A.5.5 0 019 18h2a.5.5 0 01.5.5V21z"/></svg>
